<?xml version="1.0" encoding="UTF-8"?>
<!-- Generator: visioncortex VTracer 0.6.2 -->
<svg version="1.1" xmlns="http://www.w3.org/2000/svg" width="1280" height="344">
<path d="M0 0 C7.86819466 -0.13170568 15.60022558 0.26409616 23.4375 0.9375 C34.623855 1.88908029 45.77206411 2.43860321 57 3 C57 112.89 57 222.78 57 336 C40.125 338.25 40.125 338.25 33 338 C31.85770121 334.57310364 32.09138924 332.38897782 32.4375 328.8125 C32.53933594 327.72582031 32.64117188 326.63914062 32.74609375 325.51953125 C32.82988281 324.68808594 32.91367188 323.85664063 33 323 C32.35675781 323.43570312 31.71351563 323.87140625 31.05078125 324.3203125 C8.76120394 339.01044762 -15.64349854 345.29101837 -42 340 C-53.34584016 337.45696686 -63.71997244 333.14230692 -73 326 C-73.495 324.515 -73.495 324.515 -74 323 C-75.33200607 322.66140182 -76.66552859 322.32874752 -78 322 C-79.703125 320.44140625 -79.703125 320.44140625 -81.25 318.5625 C-81.77078125 317.94503906 -82.2915625 317.32757813 -82.828125 316.69140625 C-84 315 -84 315 -84 313 C-84.66 313 -85.32 313 -86 313 C-106.28409018 284.67536956 -111.55005783 251.47494505 -106.41503906 217.49487305 C-102.70270288 195.51492303 -92.72104417 171.29363796 -76 156 C-75.34 156 -74.68 156 -74 156 C-74 155.34 -74 154.68 -74 154 C-71.59443509 152.26751034 -69.2060759 150.67812181 -66.6875 149.125 C-65.58970215 148.44618774 -65.58970215 148.44618774 -64.46972656 147.75366211 C-58.84465645 144.35502785 -53.3488922 141.7693634 -47 140 C-46.08347656 139.72800781 -45.16695312 139.45601562 -44.22265625 139.17578125 C-18.04783036 131.97331238 9.6935966 133.70033453 34 146 C34.04660801 134.03754112 34.08201249 122.07510431 34.10362434 110.11257267 C34.11400372 104.55621669 34.12805443 98.99992342 34.15087891 93.44360352 C34.1728179 88.06840345 34.18461242 82.69326321 34.18975449 77.31802177 C34.19341284 75.28061419 34.200555 73.2432094 34.21146011 71.20582771 C34.90449502 43.59798976 34.90449502 43.59798976 24 19 C17.20915662 13.08879954 8.77300818 8.9938655 0 7 C0 4.69 0 2.38 0 0 Z M-66 178 C-79.78624685 196.69603698 -83.17622853 217.07180171 -83.1875 239.75 C-83.19974609 241.03132813 -83.21199219 242.31265625 -83.22460938 243.6328125 C-83.26082411 267.43796469 -76.36199704 289.35518367 -60 307 C-54.00164806 312.29515532 -47.51538168 316.26467189 -40 319 C-39.07832031 319.34804688 -38.15664062 319.69609375 -37.20703125 320.0546875 C-20.81753829 324.88569517 -1.96437595 321.3688521 12.8125 313.5 C14.88402452 312.3494334 16.94726031 311.18375552 19 310 C19.95261719 309.4740625 20.90523437 308.948125 21.88671875 308.40625 C22.58410156 307.9421875 23.28148437 307.478125 24 307 C24 306.34 24 305.68 24 305 C24.721875 304.79375 25.44375 304.5875 26.1875 304.375 C29.87027245 302.57453347 32.1482248 300.62953234 34 297 C34.81174451 292.60588602 34.78955195 288.24070971 34.80859375 283.78125 C34.83138185 282.38778922 34.85589312 280.99435577 34.88194275 279.60095215 C34.96119436 274.73405197 34.9807804 269.86744466 35 265 C35.01062471 263.10123574 35.02147603 261.20247274 35.03253174 259.30371094 C35.10641696 245.4814197 35.09699177 231.6596242 35.06866455 217.83721924 C35.05824674 212.197473 35.05382831 206.55772193 35.04882812 200.91796875 C35.0382542 189.94530028 35.0212959 178.97265255 35 168 C33.11327126 167.04302123 31.22493229 166.08921673 29.3359375 165.13671875 C28.2845459 164.60522217 27.2331543 164.07372559 26.14990234 163.52612305 C13.67679036 157.48291866 1.04049968 154.75077034 -12.75 154.6875 C-14.04429932 154.67928223 -14.04429932 154.67928223 -15.36474609 154.67089844 C-35.36160452 154.8923645 -52.96852327 162.80874408 -66 178 Z " fill="#FDFDFD" transform="translate(1146,1)"/>
<path d="M0 0 C2.07122318 0.01612988 4.14050409 0.00002809 6.21166992 -0.01904297 C27.12001425 -0.05263242 45.40795915 7.75091694 60.65112305 22.00048828 C66.64521844 28.08404778 71.7651674 34.45915711 75.0065918 42.39111328 C75.48999023 43.56673828 75.97338867 44.74236328 76.47143555 45.95361328 C83.48965342 63.55852461 85.18558438 80.64569012 85.13696289 99.42480469 C85.13160229 101.88629311 85.13693746 104.34759912 85.14331055 106.80908203 C85.14959472 118.13109793 84.79912283 129.12284411 82.2565918 140.20361328 C82.0810376 140.97205566 81.9054834 141.74049805 81.72460938 142.53222656 C77.71396708 159.46292924 70.90496401 174.41236907 58.0065918 186.39111328 C57.3465918 186.39111328 56.6865918 186.39111328 56.0065918 186.39111328 C56.0065918 187.05111328 56.0065918 187.71111328 56.0065918 188.39111328 C54.6865918 188.72111328 53.3665918 189.05111328 52.0065918 189.39111328 C52.0065918 190.05111328 52.0065918 190.71111328 52.0065918 191.39111328 C33.4056252 204.7873579 11.53291593 210.98749553 -11.29272461 207.57006836 C-19.39766416 206.22044397 -26.56424374 203.98112111 -33.9934082 200.39111328 C-34.6946582 200.09591797 -35.3959082 199.80072266 -36.1184082 199.49658203 C-46.37885025 194.96626588 -55.85928446 185.89040885 -62.9934082 177.39111328 C-63.7668457 175.09814453 -63.7668457 175.09814453 -63.9934082 173.39111328 C-64.6534082 173.39111328 -65.3134082 173.39111328 -65.9934082 173.39111328 C-70.9273204 164.92307859 -74.53405567 156.93111332 -76.9934082 147.39111328 C-77.28086914 146.29541016 -77.56833008 145.19970703 -77.86450195 144.07080078 C-80.81401564 132.13162098 -81.17998663 120.35832936 -81.17871094 108.11425781 C-81.18088493 105.79098827 -81.19907188 103.46820485 -81.21801758 101.14501953 C-81.26997624 87.61247511 -80.45862121 74.00471106 -76.8684082 60.89111328 C-76.65885498 60.11340576 -76.44930176 59.33569824 -76.23339844 58.53442383 C-72.96108681 47.07843521 -67.99433338 35.34452955 -59.9934082 26.39111328 C-59.3334082 26.39111328 -58.6734082 26.39111328 -57.9934082 26.39111328 C-57.7252832 25.79298828 -57.4571582 25.19486328 -57.1809082 24.57861328 C-55.99423414 22.39263474 -54.89741708 20.97778734 -52.9934082 19.39111328 C-52.3334082 19.39111328 -51.6734082 19.39111328 -50.9934082 19.39111328 C-50.6634082 18.40111328 -50.3334082 17.41111328 -49.9934082 16.39111328 C-49.3334082 16.39111328 -48.6734082 16.39111328 -47.9934082 16.39111328 C-47.9934082 15.73111328 -47.9934082 15.07111328 -47.9934082 14.39111328 C-33.29506863 4.01581476 -17.87881492 -0.16513293 0 0 Z M-37.63012695 34.25048828 C-53.22454033 53.32911983 -56.1994529 76.82151088 -56.1237793 100.6965332 C-56.1184435 102.69042367 -56.12424817 104.68433372 -56.13012695 106.67822266 C-56.10844036 128.61421452 -55.48159706 154.801577 -39.24023438 171.49707031 C-26.75958677 183.59529077 -12.81217035 186.80100225 4.11767578 186.68432617 C18.42534951 186.42167322 30.78099583 181.98053259 41.4284668 172.08251953 C59.36570832 152.85770374 61.20848603 121.37484083 60.3894043 96.21923828 C59.21351106 74.90524888 56.93824928 48.859925 40.6550293 33.11767578 C38.18290447 31.05884736 35.66810678 29.19699439 33.0065918 27.39111328 C32.28600586 26.89740234 31.56541992 26.40369141 30.82299805 25.89501953 C11.13237183 13.7193479 -22.06686145 16.57002437 -37.63012695 34.25048828 Z " fill="#FDFDFD" transform="translate(539.993408203125,134.60888671875)"/>
<path d="M0 0 C-0.00523682 0.81154541 -0.01047363 1.62309082 -0.01586914 2.45922852 C-0.03674338 6.16031104 -0.04969336 9.86138113 -0.0625 13.5625 C-0.07087891 14.83931641 -0.07925781 16.11613281 -0.08789062 17.43164062 C-0.09111328 18.67236328 -0.09433594 19.91308594 -0.09765625 21.19140625 C-0.10289307 22.32779541 -0.10812988 23.46418457 -0.11352539 24.63500977 C0.00521355 28.15453402 0.50112251 31.51610345 1 35 C1.08752576 37.30605594 1.13056702 39.61415974 1.1328125 41.921875 C1.13410156 43.19417969 1.13539063 44.46648437 1.13671875 45.77734375 C1.13285156 47.08832031 1.12898437 48.39929688 1.125 49.75 C1.128566 51.0898447 1.13246943 52.42968854 1.13671875 53.76953125 C1.13478516 55.67025391 1.13478516 55.67025391 1.1328125 57.609375 C1.13168457 58.76405273 1.13055664 59.91873047 1.12939453 61.10839844 C1 64 1 64 0 67 C-2.64 67 -5.28 67 -8 67 C-8.23074219 66.20078125 -8.46148437 65.4015625 -8.69921875 64.578125 C-14.35120836 45.44669287 -14.35120836 45.44669287 -25.7109375 29.31640625 C-27 28 -27 28 -27 26 C-27.99 25.67 -28.98 25.34 -30 25 C-30 24.34 -30 23.68 -30 23 C-30.804375 22.62294922 -30.804375 22.62294922 -31.625 22.23828125 C-34.53433697 20.72140654 -37.2376311 18.95798889 -40 17.1875 C-58.21298191 5.85577734 -79.91334982 2.97887507 -100.98828125 7.09765625 C-106.3357679 8.69982151 -111.37937865 10.99064209 -116.43359375 13.34375 C-120 15 -120 15 -122.91015625 16.03125 C-123.59980469 16.3509375 -124.28945312 16.670625 -125 17 C-125.33 17.99 -125.66 18.98 -126 20 C-127.10021484 20.63808594 -127.10021484 20.63808594 -128.22265625 21.2890625 C-131.70538925 23.43454359 -133.96482848 26.18475018 -136.4375 29.375 C-136.91832031 29.9935083 -137.39914063 30.6120166 -137.89453125 31.24926758 C-149.46216807 46.60569626 -153.40726347 65.65648134 -153.3125 84.5625 C-153.30903564 85.69421631 -153.30557129 86.82593262 -153.30200195 87.99194336 C-152.99480217 111.94504045 -146.07300152 136.43607532 -129.1875 154.1875 C-115.44677318 167.27762423 -97.65387948 171.32524129 -79.1171875 171.16015625 C-73.98437387 170.89644026 -69.03502134 169.98864374 -64 169 C-62.91525391 168.85304688 -62.91525391 168.85304688 -61.80859375 168.703125 C-41.12352878 165.4060748 -24.72377982 149.13841804 -13 133 C-12.44957031 132.25878906 -11.89914063 131.51757812 -11.33203125 130.75390625 C-9.23914089 127.89996486 -7.59143135 125.18286271 -6 122 C-2.04 122 1.92 122 6 122 C8.04872972 128.14618917 3.54411199 136.24456722 1 142 C-4.86962015 153.73657835 -13.80756913 166.77669109 -25 174 C-25.66 174 -26.32 174 -27 174 C-27.33 174.99 -27.66 175.98 -28 177 C-29.71484375 178.2109375 -29.71484375 178.2109375 -31.9375 179.375 C-32.75605469 179.80425781 -33.57460937 180.23351562 -34.41796875 180.67578125 C-35.27003906 181.11277344 -36.12210938 181.54976562 -37 182 C-37.77988281 182.42667969 -38.55976563 182.85335937 -39.36328125 183.29296875 C-61.85847312 195.25849634 -91.70584183 197.08375473 -115.97900391 189.69775391 C-124.75576197 186.66755645 -133.93023473 182.04109572 -141 176 C-141 175.34 -141 174.68 -141 174 C-141.56203125 173.7628125 -142.1240625 173.525625 -142.703125 173.28125 C-145.51894042 171.71052303 -147.47955416 169.78528536 -149.75 167.5 C-150.54921875 166.7059375 -151.3484375 165.911875 -152.171875 165.09375 C-154 163 -154 163 -154 161 C-154.66 161 -155.32 161 -156 161 C-156.495 159.02 -156.495 159.02 -157 157 C-157.66 157 -158.32 157 -159 157 C-161.94692661 152.84958239 -164.46050133 148.4093656 -167 144 C-167.49371094 143.14277344 -167.98742187 142.28554688 -168.49609375 141.40234375 C-180.55709239 118.89599426 -180.72628918 91.61450177 -177 67 C-176.87882812 66.05898437 -176.75765625 65.11796875 -176.6328125 64.1484375 C-173.89015467 45.62150399 -165.09716747 29.0757932 -153 15 C-152.42894531 14.29617187 -151.85789062 13.59234375 -151.26953125 12.8671875 C-147.38422702 8.12807567 -147.38422702 8.12807567 -144 7 C-143.21625 6.175 -142.4325 5.35 -141.625 4.5 C-138.9028844 1.90750895 -137.66070817 1.31377499 -134 1 C-134 0.34 -134 -0.32 -134 -1 C-92.86989687 -21.47791152 -41.71137014 -16.45581226 0 0 Z " fill="#FDFDFD" transform="translate(219,150)"/>
<path d="M0 0 C1.67168731 0.30716516 3.33757994 0.64609545 5 1 C15.44550265 2.12924353 25.99917348 2.2903541 36.49267578 2.60742188 C52.11758651 3.11758651 52.11758651 3.11758651 54 5 C54.09774692 7.52935252 54.1299541 10.03137417 54.12025452 12.56117249 C54.12153615 13.76301852 54.12153615 13.76301852 54.12284368 14.98914427 C54.12450093 17.69468934 54.11897314 20.40017346 54.11352539 23.10571289 C54.11324355 25.03687031 54.1134012 26.96802783 54.1139679 28.89918518 C54.11425598 34.15929809 54.10835757 39.41938841 54.10139394 44.67949605 C54.09516212 50.17015422 54.09455674 55.66081284 54.09336853 61.151474 C54.0902547 71.55665691 54.08204063 81.96182937 54.07201904 92.36700767 C54.06085949 104.20960946 54.05534785 116.05221174 54.05032361 127.89481747 C54.03985805 152.26321745 54.02225763 176.63160814 54 201 C51.60328226 201.33402288 49.20613745 201.66419204 46.80859375 201.9921875 C46.13453491 202.08653076 45.46047607 202.18087402 44.76599121 202.27807617 C40.11256362 202.91063597 35.68506062 203.19122696 31 203 C30.505 195.575 30.505 195.575 30 188 C28.14375 188.886875 26.2875 189.77375 24.375 190.6875 C18.37466224 193.46446157 12.34912421 195.76979672 6.09375 197.921875 C4.20378362 198.58049965 2.32623991 199.2784736 0.4765625 200.04296875 C-15.9174902 206.37820993 -38.57325999 207.83035159 -55.203125 201.84765625 C-67.1626857 196.31252623 -75.87247838 187.88920487 -80.95703125 175.70703125 C-85.17127265 163.31342476 -85.29900872 149.54162835 -85.22705078 136.59765625 C-85.22648455 135.13718677 -85.22680734 133.67671672 -85.22793579 132.21624756 C-85.22850206 128.30817695 -85.21686748 124.40023289 -85.20278788 120.49219131 C-85.19015744 116.38697222 -85.18910043 112.2817492 -85.18673706 108.17651367 C-85.18055805 100.42800535 -85.16419648 92.67955448 -85.14403808 84.93107128 C-85.12156665 76.09895378 -85.11065758 67.26683333 -85.10064721 58.43469429 C-85.07982644 40.2897629 -85.04431121 22.14488821 -85 4 C-73.12 3.01 -73.12 3.01 -61 2 C-59.98061865 5.05814404 -60.0127843 6.22222825 -60.42842102 9.31651306 C-61.16402366 15.85887191 -61.14761384 22.35821308 -61.14526367 28.93579102 C-61.14826223 30.31180918 -61.15166635 31.68782652 -61.15544128 33.06384277 C-61.16421071 36.77241887 -61.16661629 40.48097185 -61.16725707 44.18955731 C-61.16797115 46.51170351 -61.17011211 48.83384394 -61.17275429 51.15598869 C-61.18198157 59.27123255 -61.18609212 67.38646006 -61.18530273 75.50170898 C-61.18470138 83.04530282 -61.19527118 90.58882528 -61.2110464 98.13240105 C-61.22414697 104.6303575 -61.22948564 111.12829067 -61.22884732 117.62626022 C-61.22859325 121.49801811 -61.23139487 125.36971235 -61.24202538 129.24145699 C-61.2517499 132.88179819 -61.25175592 136.52201541 -61.24450874 140.16236115 C-61.24297541 142.12266648 -61.25127747 144.08297192 -61.25994873 146.04325867 C-61.22596732 155.63792829 -59.92782947 163.29046509 -56 172 C-55.7525 173.175625 -55.7525 173.175625 -55.5 174.375 C-55.335 174.91125 -55.17 175.4475 -55 176 C-54.01 176.33 -53.02 176.66 -52 177 C-52 177.66 -52 178.32 -52 179 C-50.01101138 179.69883384 -48.00669825 180.35377514 -46 181 C-44.93845703 181.39638672 -44.93845703 181.39638672 -43.85546875 181.80078125 C-26.62888593 187.52488987 -7.21556551 184.13078859 9 177 C10.46759766 176.41025391 10.46759766 176.41025391 11.96484375 175.80859375 C16.70543212 173.90159792 21.23660512 171.90799835 25.69702148 169.40991211 C26.50388901 168.95885605 27.31075653 168.50779999 28.14207458 168.04307556 C28.75518997 167.69886063 29.36830536 167.35464569 30 167 C30.09389452 151.25643855 30.16419827 135.51295405 30.20724869 119.76918125 C30.22777875 112.45727174 30.25571368 105.14553729 30.30175781 97.83374023 C30.34192136 91.45267812 30.36750203 85.07174293 30.37635398 78.6905579 C30.38151959 75.31897117 30.39563028 71.94803195 30.42292023 68.57650948 C30.55498039 51.57179913 29.48965324 37.15779708 24 21 C23.34 21 22.68 21 22 21 C21.9175 20.38125 21.835 19.7625 21.75 19.125 C21.21235612 16.85538774 21.21235612 16.85538774 19.1796875 15.984375 C18.10074219 15.49710938 18.10074219 15.49710938 17 15 C16.11441406 14.53980469 16.11441406 14.53980469 15.2109375 14.0703125 C9.93967054 11.35617079 4.5302228 9.13049567 -1 7 C-1.04254356 5.00045254 -1.04080783 2.99958364 -1 1 C-0.67 0.67 -0.34 0.34 0 0 Z " fill="#FDFDFD" transform="translate(846,136)"/>
<path d="M0 0 C-0.0367515 0.8233871 -0.0367515 0.8233871 -0.07424545 1.66340828 C-2.48102958 56.57933929 -2.30957215 111.50918728 -2.25713682 166.4667809 C-2.24841387 176.6984351 -2.25469397 186.93004039 -2.264395 197.16169155 C-2.27349509 207.16913127 -2.27474395 217.17654998 -2.26951766 227.18399251 C-2.26643041 233.1025204 -2.26590054 239.0210152 -2.27259064 244.93954086 C-2.27840867 250.46430004 -2.27428666 255.9889682 -2.26280212 261.51371765 C-2.26018518 263.52190628 -2.26086899 265.53010273 -2.26532745 267.53828812 C-2.2845063 277.06022889 -2.1324282 286.49361602 -1.14007568 295.97073364 C-1.06679369 296.69793732 -0.9935117 297.42514099 -0.91800904 298.17438114 C-0.20004208 304.22007639 1.80274123 308.89668312 5 314 C5.34675781 314.72574219 5.69351562 315.45148438 6.05078125 316.19921875 C7.31748949 318.60231544 8.53579182 318.86779624 11 320 C12.11441438 320.79838642 13.21755789 321.61261088 14.3125 322.4375 C19.8400277 326.42764739 25.55288529 328.28987953 32.1796875 329.5703125 C34 330 34 330 35 331 C35.04092937 333.33297433 35.04241723 335.66705225 35 338 C33.40067627 337.87153687 33.40067627 337.87153687 31.76904297 337.74047852 C27.6949572 337.41426148 23.62048544 337.09308353 19.54589844 336.77319336 C17.80458378 336.63583005 16.063367 336.4972185 14.32226562 336.35717773 C4.33053986 335.55447819 -5.65228445 334.88464508 -15.66748047 334.45288086 C-16.6685936 334.40858696 -17.66970673 334.36429306 -18.70115662 334.31865692 C-21.13405251 334.21119108 -23.56699616 334.10498834 -26 334 C-26.0228646 291.72218528 -26.04049732 249.44437127 -26.05106533 207.16655159 C-26.05231611 202.18077722 -26.05361042 197.19500287 -26.05493164 192.20922852 C-26.05519395 191.21660672 -26.05545626 190.22398493 -26.05572652 189.20128369 C-26.0600836 173.10677302 -26.06797135 157.0122659 -26.0771528 140.91775734 C-26.08648829 124.41618165 -26.09205539 107.91460783 -26.09408849 91.41302961 C-26.09546394 81.22209206 -26.09981569 71.03116456 -26.10791647 60.8402301 C-26.11318264 53.8618625 -26.11480459 46.88350013 -26.11350138 39.90513069 C-26.11285779 35.87269431 -26.11387778 31.84027554 -26.11920547 27.80784225 C-26.12403952 24.12235491 -26.12433862 20.43689716 -26.12089889 16.75140851 C-26.12027026 14.77378903 -26.12461195 12.79616994 -26.12908131 10.81855541 C-26.12709026 9.66007703 -26.12509921 8.50159865 -26.12304783 7.30801487 C-26.12342755 6.29985739 -26.12380727 5.29169992 -26.1241985 4.25299221 C-26 2 -26 2 -25 1 C-22.30720594 0.75898749 -19.63591116 0.57593825 -16.9375 0.4375 C-16.19822266 0.39431641 -15.45894531 0.35113281 -14.69726562 0.30664062 C-9.78995439 0.0361589 -4.91445497 -0.00606273 0 0 Z " fill="#FDFDFD" transform="translate(1245,3)"/>
<path d="M0 0 C-0.05960403 1.2677124 -0.11920807 2.5354248 -0.18061829 3.84155273 C-2.4644093 54.04157503 -2.2757581 104.24657337 -2.20059502 154.48714256 C-2.18719684 163.89355173 -2.1848986 173.29993766 -2.1855461 182.70635509 C-2.18622662 194.15119314 -2.17927719 205.59601769 -2.1700995 217.04085159 C-2.16799755 220.26827295 -2.16726252 223.49569204 -2.16686058 226.72311401 C-6.11206706 274.28924363 -6.11206706 274.28924363 8.3671875 316.46484375 C15.60909145 323.27361948 24.35140182 324.33471088 33.90234375 324.203125 C37.58738523 323.96148294 40.51955956 323.18483079 44 322 C45.32 322 46.64 322 48 322 C48.99 325.465 48.99 325.465 50 329 C37.65809082 338.72061874 25.47340649 341.70989031 10 340 C-0.56782313 337.78436688 -8.16194732 331.93350808 -14.46875 323.34765625 C-28.46015058 301.89655485 -26.15012298 272.65999672 -26.12939453 248.25244141 C-26.13075137 245.56222924 -26.13249706 242.87201982 -26.13470459 240.18180847 C-26.13912433 233.6683413 -26.13820342 227.15488572 -26.13529195 220.64141811 C-26.13302562 215.35097512 -26.1327307 210.06053535 -26.13381577 204.77009201 C-26.133969 204.01473946 -26.13412223 203.25938692 -26.13428011 202.4811449 C-26.13459985 200.94643264 -26.13492406 199.41172038 -26.1352527 197.87700813 C-26.13809564 183.53053683 -26.1348377 169.18407195 -26.12945233 154.83760171 C-26.12497261 142.52161409 -26.1257721 130.20563589 -26.13037109 117.88964844 C-26.1357159 103.56977413 -26.13783445 89.2499054 -26.13475883 74.93003023 C-26.13444028 73.40551591 -26.13412591 71.88100159 -26.13381577 70.35648727 C-26.13366149 69.6064507 -26.13350721 68.85641412 -26.13334826 68.08364917 C-26.13248377 62.79101077 -26.13394426 57.49837591 -26.13629532 52.20573807 C-26.13909189 45.76930431 -26.13835756 39.33288276 -26.13301457 32.89645042 C-26.13037759 29.61123194 -26.12990649 26.32603819 -26.13266373 23.04081917 C-26.13537182 19.48834316 -26.1319985 15.9359256 -26.12698364 12.38345337 C-26.12921436 11.33436912 -26.13144509 10.28528487 -26.13374341 9.2044102 C-26.13113566 8.26070264 -26.12852791 7.31699508 -26.12584114 6.34469032 C-26.12567879 5.52389193 -26.12551644 4.70309354 -26.12534916 3.85742247 C-26 2 -26 2 -25 1 C-22.30720594 0.75898749 -19.63591116 0.57593825 -16.9375 0.4375 C-16.19822266 0.39431641 -15.45894531 0.35113281 -14.69726562 0.30664062 C-9.78995439 0.0361589 -4.91445497 -0.00606273 0 0 Z " fill="#FDFDFD" transform="translate(349,3)"/>
<path d="M0 0 C6.56760343 0.00079195 12.96660154 0.58992721 19.47802734 1.40332031 C26.39938455 2.24236254 33.3126638 2.59484002 40.27807617 2.84545898 C46.46321953 3.08821953 46.46321953 3.08821953 47.5625 4.1875 C47.66347252 5.71301216 47.69464257 7.24319189 47.69837189 8.77203751 C47.70322963 9.7692294 47.70808738 10.76642128 47.71309233 11.79383111 C47.71338831 12.90264382 47.7136843 14.01145653 47.71398926 15.15386963 C47.71822167 16.32161478 47.72245408 17.48935993 47.72681475 18.69249129 C47.73762748 21.94879118 47.74394929 25.20506541 47.74844956 28.46137905 C47.75438246 31.96812927 47.76605478 35.47486067 47.77708435 38.9815979 C47.79546724 45.06516272 47.81030021 51.14872794 47.82286072 57.23230743 C47.84114037 66.04239529 47.86580793 74.85245647 47.89223462 83.66252324 C47.93507727 97.97357454 47.97417232 112.28463325 48.01025391 126.59570312 C48.01241671 127.45302464 48.01457951 128.31034616 48.01680785 129.19364712 C48.02993679 134.40563993 48.04297806 139.61763297 48.05598927 144.82962608 C48.07545019 152.62469895 48.09499731 160.4197716 48.11474609 168.21484375 C48.11690496 169.06748551 48.11906383 169.92012727 48.12128812 170.79860666 C48.15746644 185.04025766 48.19743366 199.28189567 48.24004889 213.52352881 C48.26613803 222.30415598 48.28881353 231.0847793 48.30703247 239.86542639 C48.31975404 245.89309305 48.3359002 251.92074436 48.35468161 257.94839516 C48.36537988 261.42131997 48.37452248 264.89423012 48.37937737 268.36716843 C48.38546828 272.14391543 48.39753823 275.92059978 48.41101074 279.69732666 C48.41130673 280.77937071 48.41160272 281.86141476 48.41190767 282.97624803 C48.50759068 303.23431519 51.90189713 320.80319041 64.5625 337.1875 C64.2325 337.8475 63.9025 338.5075 63.5625 339.1875 C51.63707434 335.90368714 41.09595766 329.73415943 34.6171875 318.94921875 C23.72516943 298.74202809 24.26404455 276.09603956 24.25952148 253.70288086 C24.25183892 251.42223822 24.24328859 249.14159837 24.23394775 246.86096191 C24.21582629 241.99346051 24.2036885 237.1259963 24.19640923 232.25846672 C24.18482106 224.55407018 24.15932466 216.84975587 24.13209534 209.145401 C24.0953254 198.34181679 24.0645573 187.53823591 24.03930664 176.73461914 C24.03770934 176.05200134 24.03611204 175.36938355 24.03446633 174.66608036 C24.03286743 173.98260239 24.03126853 173.29912442 24.02962118 172.594935 C24.00688931 162.885631 23.98224651 153.17633433 23.95532227 143.46704102 C23.95342612 142.78254495 23.95152997 142.09804889 23.94957637 141.39281052 C23.91774554 129.95977788 23.88199376 118.52676008 23.84428078 107.09374529 C23.81945215 99.44140819 23.79998011 91.78908189 23.78489864 84.13671958 C23.77466533 79.37692071 23.76052018 74.61713889 23.74542236 69.85735321 C23.73928998 67.65759497 23.73481777 65.45783136 23.73216438 63.25806618 C23.72832445 60.24577891 23.71848141 57.23356577 23.70726013 54.22129822 C23.70764626 53.36039092 23.7080324 52.49948361 23.70843023 51.61248821 C23.6399572 38.35397584 22.71292084 27.35463427 13.5625 17.1875 C13.5625 16.5275 13.5625 15.8675 13.5625 15.1875 C12.9025 14.94 12.2425 14.6925 11.5625 14.4375 C9.18126404 13.44531835 6.9689188 12.37703354 4.6875 11.1875 C1.04205033 9.3301226 -2.4733741 8.17853148 -6.4375 7.1875 C-6.81883299 5.1960944 -7.15075582 3.19470923 -7.4375 1.1875 C-5.5664671 -0.6835329 -2.49776168 0.01321567 0 0 Z " fill="#FDFDFD" transform="translate(260.4375,0.8125)"/>
<path d="M0 0 C0 1.98 0 3.96 0 6 C-0.92619141 6.34611328 -0.92619141 6.34611328 -1.87109375 6.69921875 C-7.88648235 9.01564693 -13.51041459 11.61528453 -19 15 C-20.051875 15.639375 -21.10375 16.27875 -22.1875 16.9375 C-30.75749098 24.60036101 -32.15524423 38.22724753 -33 49 C-33.35539636 56.87798017 -33.28229152 64.76832563 -33.265625 72.65234375 C-33.26697584 74.92428122 -33.26891984 77.19621841 -33.27142334 79.46815491 C-33.2743555 84.20755797 -33.27013919 88.94688513 -33.26074219 93.6862793 C-33.24935548 99.71869173 -33.25591453 105.75092597 -33.26788712 111.78333187 C-33.27516311 116.46860563 -33.2727915 121.15383814 -33.26763153 125.83911324 C-33.26631052 128.06154973 -33.26788753 130.28399014 -33.27259064 132.50642204 C-33.5272773 156.34365665 -33.5272773 156.34365665 -27 179 C-26.649375 180.175625 -26.29875 181.35125 -25.9375 182.5625 C-25.628125 183.366875 -25.31875 184.17125 -25 185 C-24.01 185.33 -23.02 185.66 -22 186 C-22 186.66 -22 187.32 -22 188 C-20.9171875 188.4021875 -20.9171875 188.4021875 -19.8125 188.8125 C-17 190 -17 190 -14.875 191.4375 C-11.16913396 193.45155763 -7.40663964 194.3373864 -3.328125 195.3515625 C-1 196 -1 196 0 197 C0.04092937 199.33297433 0.04241723 201.66705225 0 204 C-6.34982293 203.59310194 -12.69949521 203.18391021 -19.04907227 202.77319336 C-21.20496345 202.63400475 -23.36088744 202.49532333 -25.5168457 202.35717773 C-28.63241393 202.15745258 -31.74785594 201.95584713 -34.86328125 201.75390625 C-35.81270096 201.6934462 -36.76212067 201.63298615 -37.74031067 201.57069397 C-44.17639971 201.15109834 -50.57193257 200.58436977 -57 200 C-57 134.99 -57 69.98 -57 3 C-50.44382447 2.34438245 -43.98236588 1.78717818 -37.4140625 1.5 C-35.6419239 1.41673449 -33.86978857 1.33339918 -32.09765625 1.25 C-29.34592498 1.12364247 -26.59414107 0.99861381 -23.84228516 0.875 C-21.15770636 0.753427 -18.4733907 0.62696892 -15.7890625 0.5 C-14.55465927 0.44682617 -14.55465927 0.44682617 -13.2953186 0.39257812 C-9.07149284 0.22658281 -9.07149284 0.22658281 -4.93954468 -0.58007812 C-3 -1 -3 -1 0 0 Z " fill="#FDFDFD" transform="translate(973,137)"/>
<path d="M0 0 C3.01166204 0.24068611 5.99833714 0.54046188 9 0.875 C18.42715125 1.85985269 27.8223467 2.36746466 37.29492188 2.65771484 C38.77895508 2.70532959 38.77895508 2.70532959 40.29296875 2.75390625 C41.58497192 2.78979858 41.58497192 2.78979858 42.90307617 2.82641602 C45.68110201 2.98212562 48.42607754 3.2292029 51.19355774 3.510849 C52.54382789 3.64771826 52.54382789 3.64771826 53.92137623 3.78735256 C54.60732207 3.85752622 55.29326792 3.92769987 56 4 C56.00331015 4.76438668 56.00662029 5.52877337 56.01003075 6.31632328 C56.09148847 24.9731737 56.18365411 43.62994364 56.28752708 62.28668308 C56.3375063 71.30918775 56.38395004 80.33168399 56.421875 89.35424805 C56.45496535 97.22444549 56.49488869 105.09457462 56.54279006 112.96469635 C56.56788688 117.12628238 56.58971633 121.28782409 56.60334396 125.4494648 C56.61631885 129.37864511 56.63853351 133.30767203 56.66738319 137.23676682 C56.67634006 138.66723773 56.68212078 140.09773325 56.68421364 141.52823067 C56.70090893 151.21949479 57.57295165 160.43879172 59 170 C59.36150806 172.99784374 59.68389136 175.99696795 60 179 C60.66 179 61.32 179 62 179 C62.31453125 179.66386719 62.6290625 180.32773437 62.953125 181.01171875 C67.11360267 190.23216176 67.11360267 190.23216176 75 196 C75 196.66 75 197.32 75 198 C64.37709783 198.69658375 55.80459647 195.37985079 47.29296875 189.046875 C38.41060387 181.11781334 34.90088945 170.88981551 33.83398438 159.32641602 C33.75435204 158.51314378 33.6747197 157.69987154 33.59267426 156.86195469 C32.78397141 147.83873575 32.68864046 138.81643323 32.66447449 129.76249504 C32.6559963 126.68526101 32.63532899 123.60829814 32.61193848 120.53114319 C32.55627896 112.89763252 32.52052165 105.2640553 32.48431396 97.63043213 C32.45277743 91.1460168 32.41337849 84.66173628 32.36405945 78.17743111 C32.34435071 75.18116873 32.335749 72.18501825 32.32775879 69.18870544 C32.28007283 60.43546349 32.05317014 51.76261155 31.13085938 43.05297852 C31.05737022 42.33738486 30.98388107 41.62179121 30.90816498 40.8845129 C29.97640331 33.09376889 27.68429688 25.55171853 22 20 C22 19.34 22 18.68 22 18 C21.29875 17.7525 20.5975 17.505 19.875 17.25 C17 16 17 16 14.4375 14.1875 C9.76158116 10.91805807 4.27565541 9.08294485 -1 7 C-1.04254356 5.00045254 -1.04080783 2.99958364 -1 1 C-0.67 0.67 -0.34 0.34 0 0 Z " fill="#FDFDFD" transform="translate(689,136)"/>
<path d="M0 0 C-0.33 0.66 -0.66 1.32 -1 2 C-1.66 2 -2.32 2 -3 2 C-3.433125 2.8971875 -3.433125 2.8971875 -3.875 3.8125 C-5 6 -5 6 -7 9 C-7.66 9 -8.32 9 -9 9 C-9.24878906 9.66386719 -9.49757813 10.32773438 -9.75390625 11.01171875 C-11.59010785 15.41514892 -13.80417352 19.61523437 -15.99023438 23.85351562 C-19.58653501 30.93098109 -22.18208595 38.0426239 -24.0625 45.75 C-24.38347656 47.02359375 -24.70445313 48.2971875 -25.03515625 49.609375 C-27.56415399 60.77651316 -28.40663946 71.58411615 -28.375 83 C-28.37412384 83.77279297 -28.37324768 84.54558594 -28.37234497 85.34179688 C-28.26791551 113.30142897 -20.56924391 139.13211028 -4.1628418 162.01464844 C-3.03377672 163.62655576 -2.0075956 165.30950177 -1 167 C-1.33 167.99 -1.66 168.98 -2 170 C-26.2522485 157.09986782 -43.37874117 134.53091853 -51.4909668 108.59301758 C-58.83463363 83.82046628 -54.69614961 54.24198072 -42.8125 31.75 C-40.29054726 27.14527363 -40.29054726 27.14527363 -38 26 C-37.67 25.01 -37.34 24.02 -37 23 C-35.0625 20.8125 -35.0625 20.8125 -33 19 C-32.34 19 -31.68 19 -31 19 C-30.67 18.01 -30.34 17.02 -30 16 C-29.34 16 -28.68 16 -28 16 C-27.67 15.01 -27.34 14.02 -27 13 C-24.69746377 11.24079183 -22.42448475 9.63527245 -20 8.0625 C-19.32098633 7.61737061 -18.64197266 7.17224121 -17.94238281 6.71362305 C-4.9643345 -1.65477817 -4.9643345 -1.65477817 0 0 Z " fill="#FDFDFD" transform="translate(1051,158)"/>
<path d="M0 0 C0.66 0.33 1.32 0.66 2 1 C1.41992188 1.79921875 0.83984375 2.5984375 0.2421875 3.421875 C-22.63408384 35.39270347 -27.02215862 76.05301364 -21.11157227 114.28588867 C-18.83525266 127.83160422 -14.88059912 140.1167577 -8.35546875 152.20703125 C-7 155 -7 155 -7 158 C-6.34 158 -5.68 158 -5 158 C-3.4921875 159.8984375 -3.4921875 159.8984375 -1.875 162.375 C-1.06675781 163.59316406 -1.06675781 163.59316406 -0.2421875 164.8359375 C1 167 1 167 1 169 C-2.39094199 168.36805172 -4.6706542 167.07259762 -7.5 165.125 C-8.2528125 164.61195313 -9.005625 164.09890625 -9.78125 163.5703125 C-10.5134375 163.05210937 -11.245625 162.53390625 -12 162 C-12.7528125 161.48179687 -13.505625 160.96359375 -14.28125 160.4296875 C-14.8484375 159.95789063 -15.415625 159.48609375 -16 159 C-16 158.34 -16 157.68 -16 157 C-16.58394531 156.73703125 -17.16789062 156.4740625 -17.76953125 156.203125 C-29.57966437 149.83268542 -37.27336648 133.94787916 -42 122 C-42.42539062 120.96939453 -42.42539062 120.96939453 -42.859375 119.91796875 C-51.9488072 95.66402466 -50.83756667 65.05755246 -40.6875 41.375 C-37.82065941 35.07806439 -34.2599531 29.4409302 -30 24 C-29.47921875 23.25234375 -28.9584375 22.5046875 -28.421875 21.734375 C-27.95265625 21.16203125 -27.4834375 20.5896875 -27 20 C-26.34 20 -25.68 20 -25 20 C-24.67 19.01 -24.34 18.02 -24 17 C-19.70926252 12.34768352 -14.35776053 8.729171 -9.1875 5.125 C-8.62450195 4.7316748 -8.06150391 4.33834961 -7.48144531 3.93310547 C-4.99409337 2.23080064 -2.87700658 0.95900219 0 0 Z " fill="#FDFDFD" transform="translate(466,154)"/>
<path d="M0 0 C4.878012 0.47950212 8.11894603 2.90560888 11.9375 5.75 C12.53240234 6.18054688 13.12730469 6.61109375 13.74023438 7.0546875 C34.16869677 21.96858135 45.80541951 42.07097991 50.53125 66.77734375 C50.829631 69.20168939 50.95007324 71.55715475 51 74 C51.05800781 75.95873047 51.05800781 75.95873047 51.1171875 77.95703125 C51.53114226 98.2567356 46.3296858 116.03171625 37 134 C36.34 134 35.68 134 35 134 C34.89042969 134.57878906 34.78085937 135.15757812 34.66796875 135.75390625 C32.73173601 142.26463037 27.15633777 146.94075537 22 151 C20.89205078 152.14275391 20.89205078 152.14275391 19.76171875 153.30859375 C16.65559222 156.33563927 13.39097333 158.85090125 9.875 161.375 C9.25496094 161.83777344 8.63492188 162.30054688 7.99609375 162.77734375 C6.38815291 163.93575274 4.69787374 164.97793841 3 166 C2.01 165.67 1.02 165.34 0 165 C0.86625 164.05125 1.7325 163.1025 2.625 162.125 C21.28294098 140.29872942 26.96172692 106.80864684 25 79 C24.93039062 77.98631348 24.86078125 76.97262695 24.7890625 75.92822266 C23.07760815 52.88517542 20.14149076 29.12940632 6.91796875 9.55859375 C6 8 6 8 6 6 C5.38125 5.7525 4.7625 5.505 4.125 5.25 C1.64931313 3.79371361 1.04874998 2.62187494 0 0 Z " fill="#FDFDFD" transform="translate(616,154)"/>
<path d="M0 0 C-1.35627567 3.01688637 -2.90608186 5.11938977 -5.1875 7.5 C-20.12880717 24.36321805 -26.13531104 48.59526213 -26.16796875 70.671875 C-26.17129715 71.47554504 -26.17462555 72.27921509 -26.17805481 73.10723877 C-26.18308613 74.79804925 -26.18546432 76.48886954 -26.18530273 78.1796875 C-26.18748234 80.72933832 -26.20565984 83.27855083 -26.22460938 85.828125 C-26.25559935 94.75656034 -25.91673563 103.23600767 -24 112 C-23.75378906 113.22074219 -23.50757812 114.44148438 -23.25390625 115.69921875 C-19.72958623 130.93144936 -14.115971 144.21506235 -5 157 C-4.34 157.99 -3.68 158.98 -3 160 C-13.91075532 159.76280967 -22.68761968 150.29968521 -30 143 C-35.05552253 137.3238218 -38.57672375 130.74902327 -42 124 C-42.35964844 123.29359375 -42.71929687 122.5871875 -43.08984375 121.859375 C-45.39363879 117.01122801 -47.06175689 111.98105924 -48.6875 106.875 C-48.90220947 106.20573486 -49.11691895 105.53646973 -49.33813477 104.84692383 C-51.86202784 96.67023627 -52.18220937 88.757331 -52.1875 80.25 C-52.19974609 79.2290625 -52.21199219 78.208125 -52.22460938 77.15625 C-52.26627931 55.26564184 -43.78043942 33.32230022 -28.6875 17.3125 C-21.98269872 10.95038856 -9.40486814 0 0 0 Z " fill="#FDFDFD" transform="translate(52,157)"/>
</svg>
